<svg version="1.1" id="Layer_1" xmlns="http://www.w3.org/2000/svg" xmlns:xlink="http://www.w3.org/1999/xlink" x="0px" y="0px"
	 width="100%" viewBox="0 0 1200 1200" enable-background="new 0 0 1200 1200" xml:space="preserve">
<path fill="#000000" opacity="1.000000" stroke="none" 
	d="
M694.000000,1201.000000 
	C464.166656,1201.000000 234.833328,1200.989502 5.500042,1201.093628 
	C1.750800,1201.095215 0.906084,1200.249023 0.907021,1196.500000 
	C1.006199,799.500000 1.006199,402.500000 0.907021,5.500023 
	C0.906084,1.750933 1.750933,0.906086 5.500023,0.907022 
	C402.500000,1.006185 799.500000,1.006186 1196.500000,0.907022 
	C1200.249023,0.906086 1201.093994,1.750932 1201.093140,5.500023 
	C1200.993896,402.500000 1200.993896,799.500000 1201.093140,1196.500000 
	C1201.093994,1200.249023 1200.249268,1201.096313 1196.500000,1201.093872 
	C1029.166626,1200.985474 861.833313,1201.000000 694.000000,1201.000000 
z"/>
<path fill="#FFFFFF" opacity="1.000000" stroke="none" 
	d="
M696.000000,628.888794 
	C696.592285,632.868591 695.590210,634.146790 691.611450,634.112671 
	C665.952148,633.892395 640.289062,633.885193 614.629944,634.115417 
	C610.457947,634.152771 609.891174,632.750732 609.923096,629.117737 
	C610.088501,610.289917 610.087280,591.459045 609.921265,572.631226 
	C609.890625,569.151733 610.360046,567.626648 614.387268,567.890503 
	C620.692139,568.303528 627.047241,568.118103 633.374451,567.943848 
	C636.029419,567.870728 637.074341,568.376648 637.087830,571.385010 
	C637.131042,581.000671 637.279968,581.000000 646.892151,581.000000 
	C653.057495,581.000000 659.226440,580.877380 665.386536,581.057129 
	C668.058777,581.135071 669.073547,580.591309 669.086792,577.602783 
	C669.129333,567.999329 669.277466,567.890930 678.903625,568.041626 
	C684.506042,568.129333 691.996277,565.616272 695.155762,569.025208 
	C697.925537,572.013733 695.972351,579.442078 695.986877,584.909607 
	C696.025513,599.406372 696.000000,613.903381 696.000000,628.888794 
z"/>
<path fill="#FFFFFF" opacity="1.000000" stroke="none" 
	d="
M230.166351,634.999878 
	C227.949554,635.186951 226.879684,634.864197 226.956711,632.668091 
	C227.108521,628.340271 227.127823,623.998108 226.949127,619.672302 
	C226.853333,617.353455 227.778458,616.738647 229.843918,616.984253 
	C230.665604,617.081909 231.508621,617.000000 232.341919,617.000000 
	C312.839020,617.000000 393.336243,617.048340 473.832977,616.873901 
	C478.419159,616.863953 479.576965,618.159302 479.047363,622.351196 
	C478.532288,626.428040 480.820312,632.059570 478.181122,634.252258 
	C475.684662,636.326416 470.272919,634.985107 466.143311,634.986145 
	C387.646149,635.004883 309.148987,635.000000 230.166351,634.999878 
z"/>
<path fill="#FFFFFF" opacity="1.000000" stroke="none" 
	d="
M861.000000,615.000000 
	C897.830017,615.000000 934.160217,615.062866 970.489563,614.905090 
	C974.215881,614.888916 975.439880,615.732910 975.077515,619.508972 
	C974.666992,623.786682 976.510803,629.578979 974.341370,632.049927 
	C971.819885,634.922058 965.911926,632.954834 961.488464,632.958130 
	C883.662354,633.016052 805.836121,632.962708 728.010193,633.103638 
	C723.864868,633.111145 722.464783,632.188477 722.919556,627.989807 
	C723.364014,623.886597 721.554199,618.310242 723.641113,615.935059 
	C726.072327,613.167969 731.752930,615.043884 736.011536,615.037476 
	C777.507568,614.975159 819.003845,615.000000 861.000000,615.000000 
z"/>
<path fill="#FFFFFF" opacity="1.000000" stroke="none" 
	d="
M529.982239,504.000000 
	C519.000000,504.000000 519.000000,504.000000 519.000000,493.484985 
	C519.000000,478.324280 519.101196,463.162354 518.919800,448.003815 
	C518.880798,444.737000 519.742188,443.493805 523.011780,443.964203 
	C524.480774,444.175598 526.005859,443.978607 527.504822,444.004272 
	C531.147095,444.066589 535.674988,442.865936 538.178589,444.592346 
	C540.617065,446.273834 538.821655,451.083160 538.937439,454.509399 
	C539.003418,456.462463 539.581543,457.054596 541.516663,457.036469 
	C550.512329,456.952118 559.510559,456.913055 568.504822,457.054169 
	C571.039185,457.093933 570.946106,455.800385 571.047119,453.988068 
	C571.228760,450.729736 569.445801,446.294556 571.825500,444.536743 
	C574.001160,442.929657 578.206482,444.017975 581.517517,444.009705 
	C591.999939,443.983490 592.000000,444.000000 592.000000,454.521881 
	C592.000000,469.682587 591.897339,484.844543 592.081116,500.003021 
	C592.120850,503.283203 591.245300,504.274139 587.981995,504.072876 
	C583.334839,503.786255 578.651672,503.868652 573.994141,504.053589 
	C571.565857,504.149963 570.940674,503.361481 570.919861,500.984070 
	C570.891418,497.732574 572.555115,493.292908 570.173279,491.535370 
	C567.996094,489.928833 563.791748,491.026733 560.480347,491.009308 
	C554.316284,490.976898 548.148865,491.111755 541.989197,490.944733 
	C539.557312,490.878784 538.626282,491.644348 538.989380,494.022644 
	C539.063965,494.511078 539.001831,495.020599 538.999695,495.520416 
	C538.962891,504.000000 538.962830,504.000000 529.982239,504.000000 
z"/>
<path fill="#FFFFFF" opacity="1.000000" stroke="none" 
	d="
M610.000000,477.000000 
	C610.000000,466.837585 610.105713,457.173248 609.934204,447.513885 
	C609.884155,444.698639 610.650940,443.636414 613.501709,443.957336 
	C615.475830,444.179565 617.495483,443.975616 619.494202,444.005310 
	C623.137390,444.059418 627.662292,442.860931 630.171814,444.584229 
	C632.619873,446.265350 630.816162,451.072784 630.937805,454.497833 
	C631.006653,456.435059 631.554504,457.055847 633.504822,457.037140 
	C642.500000,456.950989 651.497925,456.913544 660.491760,457.054169 
	C663.008850,457.093506 662.952576,455.830505 663.048340,454.001282 
	C663.218994,450.741699 661.451660,446.305634 663.817383,444.546600 
	C665.983765,442.935791 670.193604,444.020111 673.503357,444.010132 
	C682.999939,443.981415 683.000000,444.000000 683.000000,453.507629 
	C683.000000,469.000824 682.902954,484.495148 683.078796,499.986359 
	C683.115662,503.233276 682.287476,504.515381 678.998352,504.036133 
	C677.530151,503.822235 676.004517,504.020660 674.505615,503.995880 
	C670.862488,503.935669 666.337402,505.139069 663.828064,503.415680 
	C661.380249,501.734558 663.183716,496.927032 663.062195,493.501953 
	C662.993469,491.564392 662.444946,490.944244 660.494934,490.962891 
	C651.499756,491.049011 642.501892,491.086456 633.508057,490.945801 
	C630.990662,490.906433 631.047668,492.169922 630.951782,493.998932 
	C630.780884,497.258484 632.548401,501.694458 630.182434,503.453491 
	C628.015930,505.064240 623.806152,503.981232 620.496521,503.989838 
	C610.000061,504.017242 610.000000,504.000000 610.000000,493.493073 
	C610.000000,488.162048 610.000000,482.831024 610.000000,477.000000 
z"/>
<path fill="#FFFFFF" opacity="1.000000" stroke="none" 
	d="
M868.754517,721.670044 
	C866.751404,724.086731 865.101746,726.348572 863.129028,728.280640 
	C861.489929,729.885986 862.879944,730.961182 863.536377,731.947205 
	C869.484680,740.882324 875.535950,749.748901 881.803894,758.999817 
	C875.218140,758.999817 868.953796,758.938904 862.691650,759.029663 
	C860.175903,759.066162 859.008606,757.779053 857.886047,755.704041 
	C855.822449,751.889465 853.519714,748.179504 850.993958,744.657349 
	C850.371399,743.789062 850.405212,741.433167 848.621582,742.174805 
	C847.261780,742.740356 845.898071,743.934753 845.970032,745.969116 
	C846.087524,749.293579 845.863403,752.632812 846.046387,755.951355 
	C846.175659,758.296204 845.504761,759.416260 843.041931,759.003357 
	C842.880066,758.976196 842.709167,759.008850 842.543335,758.998718 
	C837.121399,758.669312 830.057739,761.264282 826.770508,757.963196 
	C824.161377,755.343201 826.021301,748.206970 826.012085,743.075745 
	C825.980591,725.600403 826.154480,708.122559 825.886108,690.651306 
	C825.822876,686.534241 827.153503,685.640442 830.855591,685.933167 
	C834.659729,686.234070 838.527893,686.251526 842.327515,685.923645 
	C845.600952,685.641052 846.113708,686.911499 846.067993,689.837769 
	C845.897644,700.731018 846.000000,711.628418 846.000000,723.757324 
	C849.818481,718.524292 853.071472,714.393555 855.932312,710.007080 
	C857.356323,707.823792 858.866638,706.878967 861.474060,706.949219 
	C867.445801,707.110046 873.424927,707.000000 879.977600,707.000000 
	C876.132446,712.019714 872.550293,716.696106 868.754517,721.670044 
z"/>
<path fill="#FFFFFF" opacity="1.000000" stroke="none" 
	d="
M495.377808,742.131104 
	C499.951874,739.323730 503.209229,743.476624 507.106750,743.643127 
	C509.305725,743.737061 511.253265,745.491394 513.750732,744.936707 
	C509.850464,754.281433 501.216522,759.887939 491.229218,760.029053 
	C483.049408,760.144592 474.944397,760.339355 467.923431,755.012817 
	C461.726044,750.310974 458.268341,744.190613 458.032959,736.414917 
	C457.880768,731.388672 457.781769,726.402405 459.832428,721.527649 
	C463.474823,712.869019 470.071930,707.437744 478.947815,706.276672 
	C488.937500,704.969971 499.114807,705.156921 507.749481,712.224854 
	C513.181335,716.671021 518.140259,731.306213 516.001587,737.745056 
	C515.235046,740.052795 513.480103,738.923157 512.262512,738.935608 
	C501.452179,739.046448 490.640167,739.000000 479.835022,739.000000 
	C478.892944,743.377869 482.279297,744.414368 485.071899,745.509155 
	C489.068756,747.075989 492.417511,745.609436 495.377808,742.131104 
z"/>
<path fill="#FFFFFF" opacity="1.000000" stroke="none" 
	d="
M591.999878,630.827759 
	C591.958496,632.588318 592.293030,633.747742 590.194641,634.069641 
	C582.094360,635.311890 581.000000,634.474670 581.000000,626.187317 
	C581.000000,614.529907 580.915405,602.871338 581.062988,591.215820 
	C581.097351,588.504639 580.315857,586.614380 578.347656,584.768921 
	C573.857483,580.558594 569.496460,576.198364 565.281189,571.712708 
	C563.446106,569.759888 561.606812,568.867859 558.861877,568.931824 
	C550.706116,569.121887 542.530640,569.266663 534.388184,568.886292 
	C530.382263,568.699158 529.705444,570.120605 529.927490,573.627441 
	C530.221619,578.271790 529.668518,582.979736 530.100220,587.602417 
	C530.476074,591.627563 528.893433,592.408936 525.379272,592.077515 
	C523.669006,591.916321 521.388123,591.105469 520.229980,592.715393 
	C519.517090,593.706299 519.803833,595.669617 520.128113,597.084900 
	C520.479980,598.620667 522.056702,597.964783 523.097595,597.971680 
	C530.924377,598.023438 538.752930,598.081299 546.578308,597.964417 
	C550.285278,597.909119 552.102722,599.309631 552.037537,603.174866 
	C551.975952,606.823669 550.157043,608.060059 546.729736,608.029358 
	C537.237976,607.944336 527.717346,607.545959 518.260071,608.123108 
	C508.086487,608.744019 504.592834,601.210205 506.107697,592.779968 
	C508.577728,579.033813 515.310486,568.070251 527.602844,560.926636 
	C535.485291,556.345825 543.886292,555.260315 553.014038,555.794739 
	C566.293091,556.572205 575.528992,563.750000 583.474976,573.127258 
	C587.984253,578.448792 590.023865,585.144897 591.035461,592.125183 
	C592.878113,604.838379 591.590576,617.607971 591.999878,630.827759 
z"/>
<path fill="#FFFFFF" opacity="1.000000" stroke="none" 
	d="
M706.000488,738.567505 
	C706.239807,732.886414 705.043518,727.479248 707.238831,722.488159 
	C710.867615,714.238037 716.627441,708.117065 725.913879,706.622864 
	C736.766663,704.876587 747.600159,704.902893 756.277893,712.926636 
	C765.255798,721.227844 766.541809,736.463745 760.870667,746.590027 
	C755.530945,756.124512 747.158813,760.039246 736.396790,760.092102 
	C729.933899,760.123840 723.664246,759.735291 718.010437,756.454651 
	C711.332214,752.579590 707.738220,746.395203 706.000488,738.567505 
z"/>
<path fill="#FFFFFF" opacity="1.000000" stroke="none" 
	d="
M369.961731,759.000000 
	C358.000000,759.000000 358.000000,759.000000 358.000000,747.466675 
	C358.000000,735.136658 358.091858,722.805420 357.931671,710.477539 
	C357.894379,707.606873 358.741882,706.746643 361.537872,706.944763 
	C364.853668,707.179810 368.226990,707.270630 371.523804,706.927979 
	C375.221161,706.543762 376.860504,707.642517 375.689697,712.473755 
	C381.814819,706.891846 388.340057,705.621887 395.597046,705.899902 
	C405.890167,706.294250 411.634888,711.178650 411.926239,721.587036 
	C412.247803,733.074890 411.923553,744.579712 412.059265,756.074951 
	C412.089081,758.600586 411.201538,759.123413 408.911804,759.046631 
	C404.251648,758.890198 399.576050,758.852966 394.919678,759.058167 
	C392.373444,759.170410 391.909485,758.181335 391.953064,755.905212 
	C392.083862,749.076233 391.915894,742.241638 392.039032,735.412415 
	C392.092651,732.439209 391.759735,729.570923 391.002838,726.717896 
	C390.063446,723.177063 386.902954,721.701904 383.865723,723.720825 
	C380.251801,726.123108 377.814545,729.271667 377.951782,734.047058 
	C378.143188,740.706421 377.695129,747.394470 378.109558,754.033447 
	C378.376068,758.302856 377.023804,759.751892 372.946136,759.020874 
	C372.138947,758.876099 371.283600,759.000000 369.961731,759.000000 
z"/>
<path fill="#FFFFFF" opacity="1.000000" stroke="none" 
	d="
M766.012451,729.408752 
	C767.795593,722.899292 769.467834,716.886963 774.789551,712.604858 
	C779.604614,708.730408 784.675537,705.841675 791.013428,706.021912 
	C797.182434,706.197510 803.440552,705.098999 809.394165,708.045837 
	C814.996887,710.819031 819.057800,714.930420 822.183350,720.413757 
	C816.384033,722.083679 810.831360,723.546509 805.387207,725.338867 
	C803.889771,725.831909 802.134460,726.635010 801.255859,725.537231 
	C798.219055,721.742920 794.511963,721.054443 790.940491,723.761597 
	C787.150574,726.634399 786.117126,731.300903 787.121094,735.780945 
	C788.494751,741.911133 794.831238,747.130188 800.872009,741.046204 
	C802.158203,739.750793 803.470032,739.759521 804.193726,740.164795 
	C805.601868,740.953430 807.069336,740.747925 808.442139,741.179260 
	C812.965332,742.600220 817.458740,744.115845 821.989319,745.603699 
	C813.447693,761.634094 798.712158,762.290649 783.731812,758.606628 
	C774.047302,756.224976 765.175049,746.440552 766.012451,729.408752 
z"/>
<path fill="#FFFFFF" opacity="1.000000" stroke="none" 
	d="
M658.720581,732.230225 
	C666.773865,740.438965 663.293640,755.914612 652.458862,758.645447 
	C640.529358,761.652283 628.624695,761.225525 617.906677,753.570068 
	C615.976562,752.191528 615.494873,751.014954 616.340759,749.276855 
	C617.744019,746.393677 619.243591,743.510193 621.101257,740.911804 
	C622.358643,739.153015 623.952515,740.015076 625.682190,741.073853 
	C630.077271,743.763977 634.567993,746.522583 640.088196,745.971985 
	C641.080566,745.872986 642.586975,746.747681 642.934692,744.963928 
	C643.234131,743.427673 642.417847,742.493774 640.979370,741.994141 
	C637.198181,740.680847 633.365479,739.488037 629.668152,737.967957 
	C624.575806,735.874268 618.740112,734.426147 617.041565,728.135986 
	C614.096924,717.231201 621.708374,708.239197 630.541870,706.324280 
	C640.198792,704.230896 649.768677,705.017212 658.275208,711.009460 
	C660.193359,712.360657 661.542725,713.582397 659.101562,715.691895 
	C658.544617,716.173157 658.401306,717.112488 658.009094,717.808105 
	C653.701172,725.448303 653.662231,725.515686 646.359070,721.732727 
	C644.449158,720.743469 642.289246,720.510559 640.518433,719.639404 
	C638.014954,718.407654 636.295837,719.259766 635.680115,721.082825 
	C635.027771,723.014160 637.244446,723.786621 638.850586,724.332947 
	C642.329895,725.516541 645.804260,726.739075 649.345215,727.710022 
	C652.646240,728.615173 655.573181,730.203125 658.720581,732.230225 
z"/>
<path fill="#FFFFFF" opacity="1.000000" stroke="none" 
	d="
M431.346161,759.103760 
	C425.256653,756.405090 422.812012,751.956116 422.961365,745.746033 
	C423.129425,738.757324 422.834198,731.755798 423.076599,724.771484 
	C423.182556,721.718323 422.410980,720.411499 419.275513,720.993225 
	C416.700928,721.470886 415.641174,720.466919 415.959412,717.779175 
	C416.173279,715.973083 416.167786,714.102234 415.964630,712.293640 
	C415.556183,708.656982 415.998291,706.025391 420.703064,706.980896 
	C422.900879,707.427246 423.053436,706.000305 423.022064,704.305603 
	C422.951294,700.477600 423.103241,696.643433 422.959320,692.819519 
	C422.880402,690.722595 423.403107,689.869080 425.690826,689.949036 
	C430.513245,690.117554 435.352997,690.160156 440.171021,689.937378 
	C442.855682,689.813232 443.124237,691.028442 443.035797,693.181885 
	C442.899323,696.506165 443.193359,699.854797 442.942230,703.165649 
	C442.718597,706.114136 443.417084,707.205200 446.674438,707.095825 
	C452.992157,706.883667 452.999969,707.115662 453.000031,713.666382 
	C453.000031,714.165894 452.922058,714.679871 453.012085,715.162598 
	C453.877380,719.801636 452.310120,722.006470 447.336029,721.012085 
	C443.990967,720.343323 442.568329,721.507141 442.923096,725.169373 
	C443.274628,728.798157 442.976807,732.487793 443.005310,736.150391 
	C443.050354,741.938171 444.982727,743.850220 450.149109,741.782471 
	C453.908783,740.277710 454.338745,742.059082 454.981781,744.566895 
	C455.699463,747.365967 456.495209,750.165527 456.903412,753.015442 
	C457.129242,754.592224 457.761505,756.483154 455.198120,757.435303 
	C447.516998,760.288086 439.736847,760.909790 431.346161,759.103760 
z"/>
<path fill="#FFFFFF" opacity="1.000000" stroke="none" 
	d="
M671.000000,737.985474 
	C671.000000,733.994995 670.884827,730.496399 671.031738,727.008789 
	C671.184448,723.383423 671.618896,719.746216 666.025757,720.992615 
	C665.867798,721.027771 665.625244,721.064026 665.537781,720.979736 
	C662.009827,717.580322 664.902222,713.319397 664.030090,709.544067 
	C663.475647,707.143799 665.047241,706.670593 666.935181,707.022400 
	C670.768677,707.736755 671.134155,705.757935 671.091919,702.574585 
	C671.037842,698.489075 669.196167,693.054077 671.860107,690.679688 
	C674.114990,688.669922 679.430969,690.035400 683.392883,690.012634 
	C690.999817,689.968994 691.000000,690.000000 691.000000,697.379272 
	C691.000000,698.377502 690.999939,699.375671 690.999939,700.373901 
	C691.000000,706.875916 691.008179,707.115723 697.356750,706.901428 
	C700.661133,706.789978 701.448608,707.981018 701.014404,710.858093 
	C700.916199,711.508728 700.999939,712.186829 701.000000,712.852295 
	C701.000977,720.487366 701.006409,720.616211 693.662964,720.924194 
	C691.373352,721.020264 690.895020,721.771912 690.960754,723.834839 
	C691.093079,727.989868 690.969788,732.152344 691.007324,736.311279 
	C691.058594,741.996338 693.080627,743.921692 698.286987,741.748657 
	C701.875977,740.250916 702.297974,742.071899 702.934998,744.225220 
	C703.798584,747.144592 704.507141,750.142578 704.884399,753.156616 
	C705.033020,754.343750 706.006775,756.133301 703.939026,757.005310 
	C696.063354,760.326721 687.879944,761.330688 679.661926,759.070496 
	C673.621765,757.409302 670.931396,752.712097 670.995483,746.467957 
	C671.022827,743.806335 671.000000,741.144165 671.000000,737.985474 
z"/>
<path fill="#FFFFFF" opacity="1.000000" stroke="none" 
	d="
M553.543701,611.801880 
	C557.640930,607.621887 559.019653,603.232117 556.532288,597.965454 
	C554.213074,593.054810 549.802368,592.182129 545.198364,592.050415 
	C535.003052,591.758606 534.999878,591.869995 535.000000,581.697693 
	C535.000061,575.000061 535.000061,575.000000 541.808838,575.000000 
	C546.473511,574.999939 551.146851,575.171814 555.799500,574.934875 
	C558.541321,574.795288 559.201965,575.794983 559.046631,578.315247 
	C558.852295,581.468567 559.193848,584.658508 558.941772,587.803528 
	C558.720886,590.559326 559.809937,591.198608 562.320312,591.046082 
	C565.473938,590.854370 568.663879,591.195618 571.808594,590.941406 
	C574.574585,590.717896 575.074219,591.832947 575.051086,594.323425 
	C574.937988,606.483765 574.910767,618.646912 575.068237,630.806213 
	C575.103699,633.544434 574.184509,634.079041 571.682495,634.052124 
	C560.521973,633.931885 549.357971,633.904968 538.198547,634.067871 
	C535.468750,634.107727 534.846497,633.203918 534.948730,630.685608 
	C535.131104,626.194946 535.175903,621.682129 534.934998,617.197021 
	C534.787354,614.448242 535.807678,613.875366 538.316345,613.945618 
	C543.353943,614.086670 548.496521,614.624817 553.543701,611.801880 
z"/>
<path fill="#FFFFFF" opacity="1.000000" stroke="none" 
	d="
M544.418335,759.829224 
	C538.776733,759.551025 533.469238,760.989563 528.325134,759.105774 
	C522.495544,756.971008 520.100769,752.386230 520.056213,746.650146 
	C519.907837,727.529541 520.045349,708.406860 519.945862,689.285645 
	C519.932678,686.742126 520.520752,685.787476 523.216492,685.938904 
	C527.360352,686.171570 531.544617,686.236572 535.678284,685.926392 
	C539.088196,685.670532 540.151611,686.568420 540.095642,690.178955 
	C539.866516,704.973999 540.040100,719.774841 539.955811,734.572937 
	C539.943481,736.742859 540.177429,738.812927 541.045776,740.734131 
	C542.108093,743.084473 543.252930,745.034546 546.608459,743.197205 
	C549.292908,741.727234 551.455811,742.272034 551.081848,746.297729 
	C550.924561,747.990601 551.736206,749.756897 551.987610,751.507080 
	C552.908630,757.917603 552.888367,757.912109 546.095947,759.041870 
	C545.656433,759.114929 545.262390,759.460632 544.418335,759.829224 
z"/>
<path fill="#FFFFFF" opacity="1.000000" stroke="none" 
	d="
M584.280396,742.373657 
	C587.175903,746.249695 586.075378,751.253906 587.932068,755.549866 
	C588.360779,756.541870 587.372314,757.494324 586.414368,757.831726 
	C579.168579,760.384033 571.592346,761.002319 564.205872,759.499146 
	C558.315002,758.300354 555.043762,752.978516 555.023010,746.706116 
	C554.959717,727.575928 555.041321,708.445190 554.949768,689.315247 
	C554.937866,686.823425 555.437744,685.786438 558.189636,685.934998 
	C562.668091,686.176636 567.182190,686.209229 571.656067,685.928162 
	C574.753540,685.733643 575.071411,687.069336 575.052246,689.661133 
	C574.944031,704.299255 575.000000,718.938538 575.000000,733.577454 
	C575.000000,734.409241 574.970520,735.242188 575.004639,736.072571 
	C575.285950,742.923645 577.371216,744.441101 584.280396,742.373657 
z"/>
<path fill="#FFFFFF" opacity="1.000000" stroke="none" 
	d="
M328.000122,691.166138 
	C327.812958,688.949280 328.137329,687.898193 330.331451,687.955811 
	C335.660492,688.095764 340.999268,688.113342 346.326874,687.947937 
	C348.641205,687.876099 349.044220,688.777954 349.038330,690.840515 
	C348.976044,712.671265 348.965271,734.502380 349.050201,756.333008 
	C349.059174,758.645142 348.214813,759.092712 346.153809,759.039673 
	C341.324249,758.915100 336.472870,758.758057 331.662079,759.083618 
	C328.363251,759.306885 327.919617,758.044495 327.935913,755.144348 
	C328.054932,733.980652 328.000000,712.816040 328.000122,691.166138 
z"/>
<path fill="#FFFFFF" opacity="1.000000" stroke="none" 
	d="
M555.890137,548.030151 
	C545.418518,553.382324 532.678162,545.395203 529.999573,536.772156 
	C526.535095,525.618958 531.102600,514.026917 542.895996,510.550629 
	C552.662354,507.671814 564.714600,513.231506 567.783997,522.441650 
	C571.485535,533.548462 565.805176,544.519592 555.890137,548.030151 
z"/>
<path fill="#FFFFFF" opacity="1.000000" stroke="none" 
	d="
M601.975220,707.000000 
	C611.000000,707.000000 611.000000,707.000000 611.000000,715.475586 
	C611.000000,728.639221 610.893127,741.804260 611.076599,754.965332 
	C611.121338,758.175842 610.357666,759.377808 607.017761,759.053040 
	C601.445862,758.511230 593.929565,761.410645 590.794739,757.935669 
	C588.037048,754.878662 590.030029,747.492676 590.010437,742.018188 
	C589.974060,731.854065 590.184692,721.684509 589.902771,711.528015 
	C589.799927,707.821106 590.690430,706.408447 594.493347,706.941101 
	C596.781311,707.261536 599.150696,707.000000 601.975220,707.000000 
z"/>
<path fill="#FFFFFF" opacity="1.000000" stroke="none" 
	d="
M626.000000,510.000000 
	C648.323364,510.000000 670.146729,510.025970 691.969910,509.965240 
	C694.533997,509.958099 696.178101,509.884583 696.161011,513.466980 
	C696.144592,516.936340 694.717957,517.049072 692.037598,517.044617 
	C653.055542,516.979614 614.071960,516.842773 575.092651,517.179688 
	C569.623413,517.226929 569.285034,512.780212 564.967285,510.000000 
	C586.117798,510.000000 605.808899,510.000000 626.000000,510.000000 
z"/>
<path fill="#FFFFFF" opacity="1.000000" stroke="none" 
	d="
M610.999878,699.840210 
	C611.190063,702.060669 610.852356,703.101379 608.664429,703.044128 
	C603.335876,702.904602 597.997803,702.886475 592.670715,703.052063 
	C590.354187,703.124023 589.887329,702.222900 589.961121,700.156555 
	C590.097778,696.328918 590.135864,692.486328 589.950073,688.662842 
	C589.836731,686.331421 590.799866,685.913330 592.851624,685.960754 
	C598.014404,686.080078 603.185669,686.117004 608.345642,685.947693 
	C610.683411,685.871033 611.115479,686.816895 611.036926,688.859924 
	C610.902466,692.354065 610.999939,695.856995 610.999878,699.840210 
z"/>
<path fill="#FFFFFF" opacity="1.000000" stroke="none" 
	d="
M530.000000,622.042908 
	C530.000000,623.366089 530.000000,624.199036 530.000000,625.032043 
	C530.000000,635.687744 528.681946,636.708618 517.953674,635.070679 
	C515.998962,634.772217 515.981873,633.861267 515.991211,632.454773 
	C516.017883,628.456543 516.000000,624.458069 516.000000,620.459656 
	C516.000061,614.000122 516.000183,614.000122 522.546936,614.000000 
	C530.000000,613.999878 530.000000,613.999878 530.000000,622.042908 
z"/>
<path fill="#FFFFFF" opacity="1.000000" stroke="none" 
	d="
M545.033813,445.156555 
	C551.383789,443.195618 557.795776,444.186951 564.160095,444.080383 
	C567.681030,444.021393 565.573486,447.062500 565.901611,448.633301 
	C566.179749,449.964142 566.813538,452.078064 563.924316,452.026886 
	C558.307434,451.927399 552.651184,452.387543 547.081055,451.867981 
	C543.004700,451.487793 545.851135,447.703247 545.033813,445.156555 
z"/>
<path fill="#FFFFFF" opacity="1.000000" stroke="none" 
	d="
M649.935669,504.000000 
	C646.611145,504.000000 643.707214,503.600159 640.959961,504.086243 
	C635.813599,504.996948 635.779236,502.121002 635.930603,498.437286 
	C636.013611,496.415863 636.697266,495.923645 638.565308,495.966858 
	C643.062683,496.071045 647.564209,495.997040 652.064026,496.000824 
	C656.855042,496.004852 658.599243,498.089844 656.892090,502.533691 
	C655.703308,505.628082 652.564636,503.307098 649.935669,504.000000 
z"/>
<path fill="#FFFFFF" opacity="1.000000" stroke="none" 
	d="
M565.999878,500.944763 
	C566.403442,503.804688 565.067322,504.070282 563.118042,504.032990 
	C557.996765,503.934937 552.861877,503.800507 547.753052,504.070557 
	C544.408997,504.247375 544.861511,502.207153 545.036987,500.298523 
	C545.201172,498.512177 543.727356,495.758026 547.657349,495.948059 
	C552.273926,496.171234 556.931274,496.276337 561.529968,495.913361 
	C565.264954,495.618561 566.725037,496.768738 565.999878,500.944763 
z"/>
<path fill="#FFFFFF" opacity="1.000000" stroke="none" 
	d="
M656.573059,451.641602 
	C650.592712,451.966644 644.955750,451.713684 639.361938,452.094604 
	C635.629578,452.348724 636.066467,450.301880 635.943176,447.912384 
	C635.802124,445.180359 636.128967,443.629456 639.543457,443.918030 
	C643.645691,444.264771 647.823975,444.277893 651.924377,443.920380 
	C655.879578,443.575500 657.869873,444.539337 657.019287,448.859955 
	C656.861938,449.658936 656.956482,450.507507 656.573059,451.641602 
z"/>
<path fill="#FFFFFF" opacity="1.000000" stroke="none" 
	d="
M511.122314,510.000000 
	C518.221008,510.000000 524.832520,510.000000 532.249146,510.000000 
	C528.307556,514.488464 525.161011,518.471558 518.791565,517.090576 
	C516.250305,516.539551 513.482849,517.118042 510.831177,516.962585 
	C508.726196,516.839233 505.911621,518.361511 505.833405,513.849182 
	C505.760834,509.662415 507.802277,509.730255 511.122314,510.000000 
z"/>
<path fill="#FFFFFF" opacity="1.000000" stroke="none" 
	d="
M644.261902,575.973267 
	C641.706238,568.602539 642.108826,568.000366 649.099121,568.000061 
	C652.072632,567.999939 655.109985,568.388855 658.005310,567.913147 
	C662.921753,567.105347 663.265808,569.610779 663.094543,573.440430 
	C662.988098,575.820496 662.028809,576.065857 660.102539,576.031067 
	C654.983154,575.938293 649.861023,575.997742 644.261902,575.973267 
z"/>
<path fill="#FFFFFF" opacity="1.000000" stroke="none" 
	d="
M569.859985,584.618286 
	C564.890503,586.991882 564.693909,586.796265 565.581360,578.686584 
	C567.419739,581.127014 568.588501,582.678406 569.859985,584.618286 
z"/>
<path fill="#000000" opacity="1.000000" stroke="none" 
	d="
M688.997437,610.057373 
	C689.184021,612.700195 689.093079,614.172058 686.010315,614.085876 
	C677.234924,613.840637 668.447205,613.926880 659.666687,614.049622 
	C657.408447,614.081177 656.764587,613.282532 656.974976,611.194824 
	C657.133179,609.625610 656.484863,607.909180 659.271973,607.950073 
	C668.549377,608.086487 677.829956,608.005798 687.109314,607.998230 
	C688.210144,607.997375 689.098450,608.187683 688.997437,610.057373 
z"/>
<path fill="#000000" opacity="1.000000" stroke="none" 
	d="
M683.029724,622.167114 
	C685.157593,621.242371 687.672546,619.288330 688.891785,622.676697 
	C689.308044,623.833496 689.769714,625.945984 688.344177,626.721375 
	C687.201843,627.342773 685.360535,627.305481 684.060913,626.869873 
	C681.918335,626.151672 683.409424,624.057312 683.029724,622.167114 
z"/>
<path fill="#000000" opacity="1.000000" stroke="none" 
	d="
M672.084412,621.002075 
	C673.887024,621.299500 676.244934,620.033936 675.942810,622.935242 
	C675.799744,624.309326 677.191711,626.544739 674.640808,626.888733 
	C673.183167,627.085266 670.760864,627.931885 670.255432,626.189026 
	C669.826050,624.708435 668.543213,621.984131 672.084412,621.002075 
z"/>
<path fill="#000000" opacity="1.000000" stroke="none" 
	d="
M659.083374,626.997925 
	C655.551758,626.013794 656.823425,623.292053 657.252747,621.811462 
	C657.758606,620.066895 660.180725,620.915588 661.638916,621.111206 
	C664.191406,621.453613 662.799927,623.689758 662.942688,625.063660 
	C663.244080,627.963989 660.886841,626.701050 659.083374,626.997925 
z"/>
<path fill="#000000" opacity="1.000000" stroke="none" 
	d="
M485.274658,720.000549 
	C486.510223,720.000488 487.381714,719.828918 488.155029,720.031677 
	C491.187012,720.826843 493.995239,722.874207 493.723846,725.802124 
	C493.480103,728.432190 490.175415,726.744385 488.277161,726.925842 
	C485.335083,727.207031 482.346405,727.000000 479.041199,727.000000 
	C479.834259,723.437805 481.277496,720.855896 485.274658,720.000549 
z"/>
<path fill="#000000" opacity="1.000000" stroke="none" 
	d="
M732.821411,743.345825 
	C725.265320,740.644226 724.756836,728.560303 730.322449,724.110962 
	C733.696594,721.413452 736.633179,721.352234 739.778198,724.268433 
	C742.845520,727.112793 744.401062,733.701477 742.559692,737.878967 
	C740.796814,741.878418 737.773621,744.223572 732.821411,743.345825 
z"/>
</svg>