<!DOCTYPE svg PUBLIC "-//W3C//DTD SVG 1.1//EN" "http://www.w3.org/Graphics/SVG/1.1/DTD/svg11.dtd">
<!-- Uploaded to: SVG Repo, www.svgrepo.com, Transformed by: SVG Repo Mixer Tools -->
<svg fill="#000000" width="800px" height="800px" viewBox="0 0 24 24" id="list-square" data-name="Flat Color" xmlns="http://www.w3.org/2000/svg" class="icon flat-color">
<g id="SVGRepo_bgCarrier" stroke-width="0"/>
<g id="SVGRepo_tracerCarrier" stroke-linecap="round" stroke-linejoin="round"/>
<g id="SVGRepo_iconCarrier">
<rect id="primary" x="2" y="2" width="20" height="20" rx="2" style="fill: #000000;"/>
<path id="secondary" d="M18,17H11a1,1,0,0,1,0-2h7a1,1,0,0,1,0,2Zm0-4H11a1,1,0,0,1,0-2h7a1,1,0,0,1,0,2Zm0-4H11a1,1,0,0,1,0-2h7a1,1,0,0,1,0,2ZM6.5,6.5A1.5,1.5,0,1,0,8,8,1.5,1.5,0,0,0,6.5,6.5Zm0,4A1.5,1.5,0,1,0,8,12,1.5,1.5,0,0,0,6.5,10.5Zm0,4A1.5,1.5,0,1,0,8,16,1.5,1.5,0,0,0,6.5,14.5Z" style="fill: #2f22dd;"/>
</g>
</svg>