<svg version="1.1" id="Layer_1" xmlns="http://www.w3.org/2000/svg" xmlns:xlink="http://www.w3.org/1999/xlink" x="0px" y="0px"
	 width="100%" viewBox="0 0 1200 1200" enable-background="new 0 0 1200 1200" xml:space="preserve">
<path fill="#000000" opacity="1.000000" stroke="none" 
	d="
M694.000000,1201.000000 
	C462.666656,1201.000000 231.833328,1201.000000 1.000000,1201.000000 
	C1.000000,801.000000 1.000000,401.000000 1.000000,1.000000 
	C401.000000,1.000000 801.000000,1.000000 1201.000000,1.000000 
	C1201.000000,401.000000 1201.000000,801.000000 1201.000000,1201.000000 
	C1032.166626,1201.000000 863.333313,1201.000000 694.000000,1201.000000 
M676.560242,568.000000 
	C674.122009,568.000000 671.683777,568.000000 668.858826,568.000000 
	C668.858826,572.603516 668.858826,576.687805 668.858826,580.729980 
	C658.053955,580.729980 647.648621,580.729980 636.850769,580.729980 
	C636.850769,576.388184 636.850769,572.304138 636.850769,568.275513 
	C627.712830,568.275513 618.974792,568.275513 610.274414,568.275513 
	C610.274414,590.287354 610.274414,612.022644 610.274414,633.728271 
	C638.950378,633.728271 667.351074,633.728271 695.729370,633.728271 
	C695.729370,611.720276 695.729370,589.985046 695.729370,568.000000 
	C689.489197,568.000000 683.516418,568.000000 676.560242,568.000000 
M389.500000,635.000000 
	C419.260895,635.000000 449.021759,635.000000 478.710205,635.000000 
	C478.710205,628.685303 478.710205,622.946228 478.710205,617.285889 
	C394.686798,617.285889 310.953491,617.285889 227.289795,617.285889 
	C227.289795,623.315857 227.289795,629.054260 227.289795,635.000000 
	C281.219543,635.000000 334.859772,635.000000 389.500000,635.000000 
M739.501587,615.000000 
	C734.069702,615.000000 728.637817,615.000000 723.291687,615.000000 
	C723.291687,621.318481 723.291687,627.057617 723.291687,632.712158 
	C807.316956,632.712158 891.050232,632.712158 974.708252,632.712158 
	C974.708252,626.681458 974.708252,620.942322 974.708252,615.000000 
	C896.444885,615.000000 818.473083,615.000000 739.501587,615.000000 
M528.512085,504.000000 
	C531.948181,504.000000 535.384277,504.000000 539.190430,504.000000 
	C539.190430,499.344818 539.190430,495.264008 539.190430,491.292114 
	C549.994385,491.292114 560.399231,491.292114 571.193726,491.292114 
	C571.193726,495.657288 571.193726,499.739014 571.193726,503.703491 
	C578.332581,503.703491 585.071655,503.703491 591.707336,503.703491 
	C591.707336,483.671906 591.707336,463.938110 591.707336,444.292969 
	C584.671204,444.292969 577.930847,444.292969 570.804688,444.292969 
	C570.804688,448.660217 570.804688,452.740540 570.804688,456.705505 
	C560.000671,456.705505 549.595764,456.705505 538.801514,456.705505 
	C538.801514,452.337738 538.801514,448.255768 538.801514,444.299042 
	C531.995422,444.299042 525.590515,444.299042 519.295288,444.299042 
	C519.295288,464.333191 519.295288,484.067017 519.295288,504.000000 
	C522.234924,504.000000 524.880920,504.000000 528.512085,504.000000 
M683.000000,473.500000 
	C683.000000,463.737854 683.000000,453.975708 683.000000,444.284607 
	C676.022034,444.284607 669.616028,444.284607 662.821899,444.284607 
	C662.821899,448.641449 662.821899,452.724274 662.821899,456.714539 
	C652.018860,456.714539 641.614563,456.714539 630.820190,456.714539 
	C630.820190,452.355957 630.820190,448.274292 630.820190,444.289185 
	C623.682251,444.289185 616.943787,444.289185 610.284302,444.289185 
	C610.284302,464.312622 610.284302,484.045624 610.284302,503.715637 
	C617.311279,503.715637 624.049683,503.715637 631.177551,503.715637 
	C631.177551,499.358307 631.177551,495.276489 631.177551,491.285156 
	C641.980591,491.285156 652.384888,491.285156 663.179199,491.285156 
	C663.179199,495.643494 663.179199,499.725220 663.179199,503.710938 
	C669.983765,503.710938 676.388672,503.710938 683.000000,503.710938 
	C683.000000,493.782257 683.000000,484.141144 683.000000,473.500000 
M869.440247,720.045044 
	C872.911865,715.861206 876.383423,711.677307 880.264526,707.000000 
	C873.448853,707.000000 867.466797,706.762634 861.523499,707.138123 
	C859.631470,707.257690 857.353638,708.596375 856.100464,710.089111 
	C852.732239,714.101196 849.821960,718.497681 845.895508,723.886536 
	C845.895508,710.400696 845.895508,698.257996 845.895508,686.324341 
	C838.934082,686.324341 832.531067,686.324341 826.292480,686.324341 
	C826.292480,710.698120 826.292480,734.746643 826.292480,758.713867 
	C832.989563,758.713867 839.391113,758.713867 845.534790,758.713867 
	C847.481323,753.091614 843.377502,746.604980 849.056274,741.509827 
	C852.169067,746.466248 854.898682,751.154236 858.009033,755.574341 
	C859.058472,757.065613 861.020691,758.745911 862.656860,758.845764 
	C868.906311,759.227173 875.192871,758.999756 881.705933,758.999756 
	C874.994995,748.939697 868.481689,739.175964 862.286438,729.889038 
	C864.829956,726.405945 866.929932,723.530212 869.440247,720.045044 
M498.882294,707.359619 
	C492.508942,706.907959 486.059784,705.639709 479.782410,706.222290 
	C472.773163,706.872742 466.975769,710.470459 462.591156,716.629578 
	C458.258209,722.716064 457.731659,729.247864 458.024139,736.141968 
	C458.359222,744.040039 461.631622,750.288757 468.153320,755.089050 
	C475.161591,760.247253 483.026978,760.323425 491.041107,759.971558 
	C501.402710,759.516663 509.243042,754.990723 513.795593,745.568542 
	C509.792816,744.351196 505.921204,743.353088 502.185211,741.984619 
	C498.793121,740.742065 496.334106,740.927002 493.480713,743.774780 
	C488.705627,748.540527 481.105072,745.769226 479.398590,738.777100 
	C491.577606,738.777100 503.677948,738.777100 516.000000,738.777100 
	C516.000000,735.306702 516.345886,732.118103 515.936401,729.029602 
	C514.601440,718.959717 509.616302,711.489014 498.882294,707.359619 
M543.426025,555.999878 
	C538.125305,557.664978 532.424561,558.577576 527.601624,561.141357 
	C515.012695,567.833374 508.547485,579.184998 506.085022,592.887695 
	C504.574158,601.294983 508.057587,608.767456 518.377930,608.119934 
	C527.503052,607.547485 536.693115,607.935730 545.853088,608.032227 
	C549.421997,608.069885 552.052124,607.525085 552.049377,603.049866 
	C552.046753,598.683472 549.601929,597.914429 545.952698,597.963135 
	C537.348633,598.077942 528.742065,598.000000 519.939026,598.000000 
	C520.046082,595.679688 520.126587,593.935242 520.224548,591.812866 
	C523.655212,591.812866 526.732849,591.812866 530.186646,591.812866 
	C530.186646,584.010193 530.186646,576.601013 530.186646,569.000000 
	C533.894897,569.000000 537.205933,568.991089 540.517029,569.001831 
	C547.844360,569.025574 556.002441,567.055786 562.265137,569.652832 
	C568.513306,572.243896 572.740173,579.546631 578.100891,584.516541 
	C580.395264,586.643677 581.094238,588.842529 581.063232,591.863403 
	C580.919800,605.800781 581.000000,619.740540 581.000000,633.770081 
	C584.866821,633.770081 588.269836,633.770081 591.001831,633.770081 
	C591.001831,620.332275 591.481750,607.110352 590.882812,593.937500 
	C590.098999,576.699829 579.901062,565.563538 564.975037,558.671082 
	C558.629639,555.740967 551.592102,553.844421 543.426025,555.999878 
M713.514465,712.991882 
	C705.441589,720.959839 704.010437,731.010681 706.816650,741.084045 
	C712.119995,760.120850 728.432190,762.571899 744.013062,759.146667 
	C760.083435,755.613831 765.502136,743.455566 763.872620,727.758911 
	C763.250366,721.764709 760.314392,716.310913 755.638062,712.292847 
	C745.310364,703.419067 723.211121,703.376526 713.514465,712.991882 
M412.000000,753.400208 
	C412.000000,743.069641 412.345612,732.723877 411.894745,722.413025 
	C411.507751,713.562561 407.696777,706.560669 399.909821,706.099670 
	C391.637878,705.609924 383.087402,704.914307 376.191711,712.318665 
	C376.020966,710.076965 375.907562,708.588196 375.812408,707.338989 
	C369.581818,707.338989 363.838623,707.338989 358.338470,707.338989 
	C358.338470,724.749939 358.338470,741.820496 358.338470,758.658936 
	C365.089539,758.658936 371.498993,758.658936 378.000000,758.658936 
	C378.000000,750.327576 377.714447,742.321533 378.146179,734.354431 
	C378.309692,731.336731 379.581390,728.001282 381.385132,725.584961 
	C382.561859,724.008545 385.665466,723.117859 387.790741,723.295715 
	C388.989410,723.396057 390.312683,726.160889 390.931763,727.949768 
	C391.656097,730.042786 391.923950,732.376343 391.955322,734.611633 
	C392.068817,742.698181 392.000000,750.787292 392.000000,758.848450 
	C398.939087,758.848450 405.225250,758.848450 412.000000,758.848450 
	C412.000000,757.262024 412.000000,755.819641 412.000000,753.400208 
M817.999390,721.499451 
	C819.330017,721.172058 820.660645,720.844666 822.069397,720.498108 
	C813.359863,704.853455 800.463318,703.893494 785.140747,707.137634 
	C772.170593,709.883667 765.036804,721.789612 766.122375,735.184875 
	C767.136169,747.694031 774.346619,757.129578 788.205139,759.918579 
	C803.518860,763.000366 816.034851,757.378296 821.855286,745.397339 
	C817.701660,744.191772 813.497986,743.133118 809.409180,741.737488 
	C805.647461,740.453552 802.199585,739.076294 798.644714,742.548035 
	C797.679932,743.490356 795.006592,743.527954 793.521667,742.947083 
	C786.993164,740.393250 785.023804,733.614868 788.564087,726.909729 
	C790.815735,722.645142 794.530518,720.732239 797.827454,723.127808 
	C801.783325,726.002197 805.237427,726.042725 809.425598,724.091492 
	C811.858459,722.958191 814.673828,722.645996 817.999390,721.499451 
M660.611877,751.926514 
	C665.893677,742.836731 663.468689,734.254639 654.228699,729.735779 
	C651.943420,728.618164 649.474121,727.872742 647.078979,726.984436 
	C642.980957,725.464661 638.874634,723.967102 634.771790,722.460144 
	C634.906555,721.631287 635.041382,720.802429 635.176147,719.973572 
	C637.075562,719.973572 639.094543,719.558655 640.848328,720.063965 
	C644.046753,720.985474 647.459717,721.937439 650.090759,723.836121 
	C652.745972,725.752197 653.587341,724.836975 654.864990,722.694275 
	C656.745422,719.540588 658.810059,716.496765 660.884094,713.269348 
	C655.590698,708.740417 649.782104,706.238525 642.493591,705.751587 
	C634.887512,705.243469 628.153564,705.778381 622.255493,710.963135 
	C615.180908,717.182129 612.509827,730.933350 624.769775,735.945496 
	C629.350830,737.818481 634.143860,739.177002 638.706238,741.089600 
	C640.492126,741.838257 641.910461,743.463928 644.385864,745.378174 
	C636.158813,747.112061 630.960266,744.063416 625.620483,741.254761 
	C624.363953,740.593811 621.720093,740.266907 621.187805,740.944153 
	C619.226746,743.439453 617.604370,746.312866 616.460754,749.277893 
	C616.059692,750.317688 616.996948,752.552734 618.019287,753.356323 
	C627.310242,760.658875 638.062927,761.098145 649.118530,759.354980 
	C653.641052,758.641846 657.820068,757.011353 660.611877,751.926514 
M671.000000,699.469177 
	C671.000000,701.909424 671.000000,704.349670 671.000000,707.152771 
	C668.399536,707.152771 666.319641,707.152771 664.253052,707.152771 
	C664.253052,711.939575 664.253052,716.349426 664.253052,721.125366 
	C666.575623,721.125366 668.647461,721.125366 671.000000,721.125366 
	C671.000000,730.118286 670.896545,738.743225 671.040405,747.364014 
	C671.121643,752.227478 673.123840,756.317261 677.809998,758.245300 
	C686.612427,761.866760 695.313416,760.415588 703.811157,756.944641 
	C704.407837,756.700928 705.052734,755.413757 704.928284,754.752380 
	C704.052490,750.098877 702.980774,745.482300 701.954834,740.776733 
	C699.594849,741.306702 697.983398,741.511963 696.483643,742.036682 
	C692.965454,743.267456 691.245056,741.427917 691.090576,738.398193 
	C690.797913,732.656738 691.005920,726.889771 691.005920,720.767822 
	C694.691406,720.767822 697.767212,720.767822 700.699402,720.767822 
	C700.699402,715.972290 700.699402,711.566895 700.699402,706.784241 
	C697.324341,706.784241 694.249817,706.784241 690.802490,706.784241 
	C690.802490,700.997375 690.802490,695.591736 690.802490,690.288147 
	C684.006165,690.288147 677.606628,690.288147 671.000000,690.288147 
	C671.000000,693.215271 671.000000,695.856079 671.000000,699.469177 
M434.944946,760.000000 
	C441.243317,759.328003 447.560913,758.787048 453.822906,757.867432 
	C454.995514,757.695190 456.950256,755.864441 456.832947,755.043579 
	C456.148529,750.253113 454.954285,745.535400 453.845123,740.388977 
	C451.986725,741.201172 451.147736,741.707886 450.238556,741.942200 
	C444.800201,743.344116 443.044769,741.942932 443.006714,736.175903 
	C442.974091,731.228638 443.000000,726.280884 443.000000,720.958557 
	C446.498383,720.958557 449.582977,720.958557 452.786987,720.958557 
	C452.786987,716.164368 452.786987,711.759155 452.786987,706.968506 
	C449.507172,706.968506 446.431610,706.968506 442.975037,706.968506 
	C442.975037,701.183838 442.975037,695.771118 442.975037,690.204224 
	C436.182373,690.204224 429.783081,690.204224 422.993958,690.204224 
	C422.993958,695.807922 422.993958,701.222900 422.993958,706.997314 
	C420.538910,706.997314 418.465485,706.997314 416.361847,706.997314 
	C416.361847,711.904175 416.361847,716.428406 416.361847,721.143799 
	C418.678955,721.143799 420.632660,721.143799 423.000000,721.143799 
	C423.000000,729.455139 423.353851,737.588562 422.889954,745.675049 
	C422.506531,752.358398 427.057159,758.784790 434.944946,760.000000 
M572.322388,633.999756 
	C573.214355,633.223450 574.874695,632.456238 574.884033,631.669556 
	C575.043396,618.236328 574.998413,604.800659 574.998413,590.976013 
	C569.514282,590.976013 564.434692,590.976013 558.980408,590.976013 
	C558.980408,585.519653 558.980408,580.440063 558.980408,575.201416 
	C550.854126,575.201416 543.122009,575.201416 535.198303,575.201416 
	C535.198303,580.804138 535.198303,586.205200 535.198303,592.000122 
	C539.003479,592.000122 542.627563,591.886719 546.242065,592.024536 
	C552.999268,592.282043 558.070801,597.122437 557.997559,603.073303 
	C557.924133,609.042786 552.847473,613.757263 546.095642,613.979004 
	C542.491760,614.097351 538.880859,614.000000 535.245972,614.000000 
	C535.245972,620.902222 535.245972,627.302795 535.245972,634.000000 
	C547.442505,634.000000 559.395386,634.000000 572.322388,633.999756 
M520.000000,747.099426 
	C520.560303,752.613525 522.580139,757.356384 528.299316,759.012573 
	C536.186768,761.296753 544.059631,760.283447 551.721558,757.607300 
	C552.299255,757.405457 553.017822,756.245178 552.913330,755.667358 
	C552.094849,751.142029 551.091248,746.650085 550.136414,742.108521 
	C542.287170,744.757080 540.073975,743.114319 540.002441,735.033813 
	C539.986206,733.205078 540.000000,731.376099 540.000000,729.547241 
	C540.000000,715.137756 540.000000,700.728210 540.000000,686.222412 
	C533.134399,686.222412 526.740234,686.222412 520.000000,686.222412 
	C520.000000,706.354553 520.000000,726.266357 520.000000,747.099426 
M555.000000,690.622681 
	C555.000000,709.118713 554.980469,727.614868 555.010254,746.110840 
	C555.021118,752.850586 558.026917,758.124573 564.164001,759.445496 
	C571.539978,761.032959 579.144104,760.442261 586.375000,757.803589 
	C587.091614,757.542053 588.012878,756.227173 587.898499,755.563232 
	C587.116821,751.026245 586.083557,746.532654 585.118652,741.964539 
	C577.404419,744.822693 575.123901,743.212036 575.001404,735.356995 
	C574.991028,734.690613 575.000000,734.023926 575.000000,733.357422 
	C575.000000,719.193787 575.000000,705.030212 575.000000,690.866577 
	C575.000000,689.282104 575.000000,687.697632 575.000000,686.000061 
	C569.005737,686.000061 563.672424,686.193848 558.362305,685.925842 
	C555.285583,685.770569 554.607117,687.043457 555.000000,690.622681 
M346.320129,688.000183 
	C340.234436,688.000183 334.148773,688.000183 328.354309,688.000183 
	C328.354309,712.110352 328.354309,735.515869 328.354309,758.641846 
	C335.455475,758.641846 342.199799,758.641846 348.999908,758.641846 
	C348.999908,735.955078 349.024231,713.626221 348.927094,691.297913 
	C348.922302,690.197632 347.857849,689.101868 346.320129,688.000183 
M547.625916,510.000000 
	C539.668884,509.923462 534.092957,513.880676 530.822083,520.784912 
	C527.002869,528.846558 528.065491,536.892334 534.083984,543.300659 
	C538.774231,548.294678 544.803223,550.501221 552.380981,549.203552 
	C563.884521,547.233398 569.790283,535.908325 568.940186,527.890808 
	C567.883179,517.922180 559.097290,508.836090 547.625916,510.000000 
M610.268311,707.057739 
	C603.645996,707.057739 597.023621,707.057739 590.203857,707.057739 
	C590.203857,724.456116 590.203857,741.526733 590.203857,758.798706 
	C597.128723,758.798706 603.866699,758.798706 610.943726,758.798706 
	C610.943726,741.652405 610.943726,724.700317 610.268311,707.057739 
M674.499878,510.000000 
	C638.478760,510.000000 602.457642,510.000000 566.596008,510.000000 
	C568.840820,517.265381 574.246094,517.100220 580.066895,517.076416 
	C616.882751,516.925842 653.699585,517.000000 690.516052,517.000000 
	C692.288086,517.000000 694.060120,517.000000 695.712280,517.000000 
	C695.712280,514.359070 695.712280,512.289307 695.712280,510.000000 
	C688.784058,510.000000 682.141968,510.000000 674.499878,510.000000 
M593.650757,686.000000 
	C592.044922,686.184448 589.834961,685.126404 589.955505,688.361511 
	C590.133362,693.133972 590.001465,697.917969 590.001465,702.759583 
	C597.216003,702.759583 603.953796,702.759583 610.756836,702.759583 
	C610.756836,697.111389 610.756836,691.706665 610.756836,686.000000 
	C605.219788,686.000000 599.920410,686.000000 593.650757,686.000000 
M520.588867,635.000000 
	C523.683044,635.000000 526.777222,635.000000 529.677612,635.000000 
	C529.677612,627.613525 529.677612,620.870728 529.677612,614.327148 
	C524.943604,614.327148 520.536560,614.327148 516.000061,614.327148 
	C516.000061,620.308594 516.183411,625.971863 515.926331,631.615051 
	C515.788025,634.652100 516.987427,635.408936 520.588867,635.000000 
M557.467834,452.000000 
	C560.246460,452.000000 563.025085,452.000000 565.725220,452.000000 
	C565.725220,449.043396 565.725220,446.638580 565.725220,444.272491 
	C558.699097,444.272491 551.951538,444.272491 545.277588,444.272491 
	C545.277588,446.959564 545.277588,449.366272 545.277588,452.000000 
	C549.196045,452.000000 552.839355,452.000000 557.467834,452.000000 
M636.000366,501.423889 
	C636.796631,502.282196 637.567932,503.855774 638.393127,503.884521 
	C644.461365,504.096069 650.540405,503.998779 656.803955,503.998779 
	C656.803955,501.226288 656.803955,498.835876 656.803955,496.282227 
	C649.843262,496.282227 643.015625,496.282227 636.000000,496.282227 
	C636.000000,497.866150 636.000000,499.168823 636.000366,501.423889 
M563.302612,503.999756 
	C569.079102,503.011627 564.418213,498.806519 566.271606,496.293701 
	C558.810425,496.293701 551.983887,496.293701 545.277222,496.293701 
	C545.277222,498.987549 545.277222,501.381195 545.277222,504.000000 
	C551.145935,504.000000 556.739624,504.000000 563.302612,503.999756 
M657.000000,447.528625 
	C656.914429,445.854095 657.692078,443.849152 654.569092,443.945984 
	C648.501465,444.134155 642.423828,444.001099 636.179932,444.001099 
	C636.179932,446.804871 636.179932,449.195374 636.179932,451.998901 
	C642.424133,451.998901 648.501831,451.865692 654.569458,452.054047 
	C657.692871,452.150970 656.914124,450.145844 657.000000,447.528625 
M525.268372,510.000000 
	C518.858276,510.000000 512.448120,510.000000 506.167480,510.000000 
	C506.167480,512.662292 506.167480,514.617432 506.167480,517.321899 
	C514.872864,515.118713 525.416931,521.767151 531.725342,510.000000 
	C529.731323,510.000000 527.961060,510.000000 525.268372,510.000000 
M643.000305,570.578613 
	C643.000305,572.319580 643.000305,574.060486 643.000305,575.763062 
	C649.968872,575.763062 656.341187,575.763062 662.786987,575.763062 
	C662.786987,573.130554 662.786987,570.739990 662.786987,568.003113 
	C656.668091,568.003113 650.754578,567.954651 644.844421,568.074524 
	C644.220825,568.087219 643.617310,569.089966 643.000305,570.578613 
z"/>
<path fill="#FFFFFF" opacity="1.000000" stroke="none" 
	d="
M677.051880,568.000000 
	C683.516418,568.000000 689.489197,568.000000 695.729370,568.000000 
	C695.729370,589.985046 695.729370,611.720276 695.729370,633.728271 
	C667.351074,633.728271 638.950378,633.728271 610.274414,633.728271 
	C610.274414,612.022644 610.274414,590.287354 610.274414,568.275513 
	C618.974792,568.275513 627.712830,568.275513 636.850769,568.275513 
	C636.850769,572.304138 636.850769,576.388184 636.850769,580.729980 
	C647.648621,580.729980 658.053955,580.729980 668.858826,580.729980 
	C668.858826,576.687805 668.858826,572.603516 668.858826,568.000000 
	C671.683777,568.000000 674.122009,568.000000 677.051880,568.000000 
M659.720459,613.999817 
	C669.437744,613.999817 679.155090,613.999817 689.058411,613.999817 
	C688.956360,611.679871 688.880066,609.945129 688.804138,608.218567 
	C678.056885,608.218567 667.685913,608.218567 656.046509,608.218567 
	C657.142944,610.546326 657.955627,612.271606 659.720459,613.999817 
M683.003723,622.629700 
	C683.078979,624.037720 683.154297,625.445740 683.223816,626.745361 
	C685.319824,626.745361 687.041504,626.745361 688.783203,626.745361 
	C688.783203,624.764893 688.783203,623.041443 688.783203,620.737122 
	C686.697937,621.089294 684.876831,621.396912 683.003723,622.629700 
M675.999634,623.533936 
	C675.699829,618.579895 672.264404,622.014893 670.344849,620.886780 
	C670.344849,623.275024 670.344849,625.107178 670.344849,627.575195 
	C672.347351,625.869324 676.080383,629.261047 675.999634,623.533936 
M658.629639,621.003784 
	C657.887695,622.765137 657.145813,624.526550 656.239075,626.679199 
	C659.222168,626.679199 661.057983,626.679199 662.877014,626.679199 
	C663.047729,621.381409 663.047729,621.381409 658.629639,621.003784 
z"/>
<path fill="#FFFFFF" opacity="1.000000" stroke="none" 
	d="
M389.000000,635.000000 
	C334.859772,635.000000 281.219543,635.000000 227.289795,635.000000 
	C227.289795,629.054260 227.289795,623.315857 227.289795,617.285889 
	C310.953491,617.285889 394.686798,617.285889 478.710205,617.285889 
	C478.710205,622.946228 478.710205,628.685303 478.710205,635.000000 
	C449.021759,635.000000 419.260895,635.000000 389.000000,635.000000 
z"/>
<path fill="#FFFFFF" opacity="1.000000" stroke="none" 
	d="
M740.001404,615.000000 
	C818.473083,615.000000 896.444885,615.000000 974.708252,615.000000 
	C974.708252,620.942322 974.708252,626.681458 974.708252,632.712158 
	C891.050232,632.712158 807.316956,632.712158 723.291687,632.712158 
	C723.291687,627.057617 723.291687,621.318481 723.291687,615.000000 
	C728.637817,615.000000 734.069702,615.000000 740.001404,615.000000 
z"/>
<path fill="#FFFFFF" opacity="1.000000" stroke="none" 
	d="
M528.019531,504.000000 
	C524.880920,504.000000 522.234924,504.000000 519.295288,504.000000 
	C519.295288,484.067017 519.295288,464.333191 519.295288,444.299042 
	C525.590515,444.299042 531.995422,444.299042 538.801514,444.299042 
	C538.801514,448.255768 538.801514,452.337738 538.801514,456.705505 
	C549.595764,456.705505 560.000671,456.705505 570.804688,456.705505 
	C570.804688,452.740540 570.804688,448.660217 570.804688,444.292969 
	C577.930847,444.292969 584.671204,444.292969 591.707336,444.292969 
	C591.707336,463.938110 591.707336,483.671906 591.707336,503.703491 
	C585.071655,503.703491 578.332581,503.703491 571.193726,503.703491 
	C571.193726,499.739014 571.193726,495.657288 571.193726,491.292114 
	C560.399231,491.292114 549.994385,491.292114 539.190430,491.292114 
	C539.190430,495.264008 539.190430,499.344818 539.190430,504.000000 
	C535.384277,504.000000 531.948181,504.000000 528.019531,504.000000 
z"/>
<path fill="#FFFFFF" opacity="1.000000" stroke="none" 
	d="
M683.000000,474.000000 
	C683.000000,484.141144 683.000000,493.782257 683.000000,503.710938 
	C676.388672,503.710938 669.983765,503.710938 663.179199,503.710938 
	C663.179199,499.725220 663.179199,495.643494 663.179199,491.285156 
	C652.384888,491.285156 641.980591,491.285156 631.177551,491.285156 
	C631.177551,495.276489 631.177551,499.358307 631.177551,503.715637 
	C624.049683,503.715637 617.311279,503.715637 610.284302,503.715637 
	C610.284302,484.045624 610.284302,464.312622 610.284302,444.289185 
	C616.943787,444.289185 623.682251,444.289185 630.820190,444.289185 
	C630.820190,448.274292 630.820190,452.355957 630.820190,456.714539 
	C641.614563,456.714539 652.018860,456.714539 662.821899,456.714539 
	C662.821899,452.724274 662.821899,448.641449 662.821899,444.284607 
	C669.616028,444.284607 676.022034,444.284607 683.000000,444.284607 
	C683.000000,453.975708 683.000000,463.737854 683.000000,474.000000 
z"/>
<path fill="#FFFFFF" opacity="1.000000" stroke="none" 
	d="
M869.235107,720.349731 
	C866.929932,723.530212 864.829956,726.405945 862.286438,729.889038 
	C868.481689,739.175964 874.994995,748.939697 881.705933,758.999756 
	C875.192871,758.999756 868.906311,759.227173 862.656860,758.845764 
	C861.020691,758.745911 859.058472,757.065613 858.009033,755.574341 
	C854.898682,751.154236 852.169067,746.466248 849.056274,741.509827 
	C843.377502,746.604980 847.481323,753.091614 845.534790,758.713867 
	C839.391113,758.713867 832.989563,758.713867 826.292480,758.713867 
	C826.292480,734.746643 826.292480,710.698120 826.292480,686.324341 
	C832.531067,686.324341 838.934082,686.324341 845.895508,686.324341 
	C845.895508,698.257996 845.895508,710.400696 845.895508,723.886536 
	C849.821960,718.497681 852.732239,714.101196 856.100464,710.089111 
	C857.353638,708.596375 859.631470,707.257690 861.523499,707.138123 
	C867.466797,706.762634 873.448853,707.000000 880.264526,707.000000 
	C876.383423,711.677307 872.911865,715.861206 869.235107,720.349731 
z"/>
<path fill="#FFFFFF" opacity="1.000000" stroke="none" 
	d="
M499.177979,707.648926 
	C509.616302,711.489014 514.601440,718.959717 515.936401,729.029602 
	C516.345886,732.118103 516.000000,735.306702 516.000000,738.777100 
	C503.677948,738.777100 491.577606,738.777100 479.398590,738.777100 
	C481.105072,745.769226 488.705627,748.540527 493.480713,743.774780 
	C496.334106,740.927002 498.793121,740.742065 502.185211,741.984619 
	C505.921204,743.353088 509.792816,744.351196 513.795593,745.568542 
	C509.243042,754.990723 501.402710,759.516663 491.041107,759.971558 
	C483.026978,760.323425 475.161591,760.247253 468.153320,755.089050 
	C461.631622,750.288757 458.359222,744.040039 458.024139,736.141968 
	C457.731659,729.247864 458.258209,722.716064 462.591156,716.629578 
	C466.975769,710.470459 472.773163,706.872742 479.782410,706.222290 
	C486.059784,705.639709 492.508942,706.907959 499.177979,707.648926 
M491.437531,721.961670 
	C486.090637,717.681091 480.643768,719.899963 479.473602,726.844604 
	C484.236450,726.844604 488.999298,726.844604 494.683472,726.844604 
	C493.577667,725.053650 492.798828,723.792236 491.437531,721.961670 
z"/>
<path fill="#FFFFFF" opacity="1.000000" stroke="none" 
	d="
M543.872559,555.998596 
	C551.592102,553.844421 558.629639,555.740967 564.975037,558.671082 
	C579.901062,565.563538 590.098999,576.699829 590.882812,593.937500 
	C591.481750,607.110352 591.001831,620.332275 591.001831,633.770081 
	C588.269836,633.770081 584.866821,633.770081 581.000000,633.770081 
	C581.000000,619.740540 580.919800,605.800781 581.063232,591.863403 
	C581.094238,588.842529 580.395264,586.643677 578.100891,584.516541 
	C572.740173,579.546631 568.513306,572.243896 562.265137,569.652832 
	C556.002441,567.055786 547.844360,569.025574 540.517029,569.001831 
	C537.205933,568.991089 533.894897,569.000000 530.186646,569.000000 
	C530.186646,576.601013 530.186646,584.010193 530.186646,591.812866 
	C526.732849,591.812866 523.655212,591.812866 520.224548,591.812866 
	C520.126587,593.935242 520.046082,595.679688 519.939026,598.000000 
	C528.742065,598.000000 537.348633,598.077942 545.952698,597.963135 
	C549.601929,597.914429 552.046753,598.683472 552.049377,603.049866 
	C552.052124,607.525085 549.421997,608.069885 545.853088,608.032227 
	C536.693115,607.935730 527.503052,607.547485 518.377930,608.119934 
	C508.057587,608.767456 504.574158,601.294983 506.085022,592.887695 
	C508.547485,579.184998 515.012695,567.833374 527.601624,561.141357 
	C532.424561,558.577576 538.125305,557.664978 543.872559,555.998596 
z"/>
<path fill="#FFFFFF" opacity="1.000000" stroke="none" 
	d="
M713.771240,712.723877 
	C723.211121,703.376526 745.310364,703.419067 755.638062,712.292847 
	C760.314392,716.310913 763.250366,721.764709 763.872620,727.758911 
	C765.502136,743.455566 760.083435,755.613831 744.013062,759.146667 
	C728.432190,762.571899 712.119995,760.120850 706.816650,741.084045 
	C704.010437,731.010681 705.441589,720.959839 713.771240,712.723877 
M742.988403,736.863708 
	C742.991760,734.546082 743.158264,732.214539 742.963013,729.913757 
	C742.604248,725.685425 737.486389,721.299500 733.966248,722.019897 
	C730.384766,722.752808 726.340149,728.196716 726.045776,732.680664 
	C725.783081,736.682251 729.694031,743.058899 733.392029,743.668152 
	C738.015625,744.429688 740.788269,741.445374 742.988403,736.863708 
z"/>
<path fill="#FFFFFF" opacity="1.000000" stroke="none" 
	d="
M412.000000,753.888794 
	C412.000000,755.819641 412.000000,757.262024 412.000000,758.848450 
	C405.225250,758.848450 398.939087,758.848450 392.000000,758.848450 
	C392.000000,750.787292 392.068817,742.698181 391.955322,734.611633 
	C391.923950,732.376343 391.656097,730.042786 390.931763,727.949768 
	C390.312683,726.160889 388.989410,723.396057 387.790741,723.295715 
	C385.665466,723.117859 382.561859,724.008545 381.385132,725.584961 
	C379.581390,728.001282 378.309692,731.336731 378.146179,734.354431 
	C377.714447,742.321533 378.000000,750.327576 378.000000,758.658936 
	C371.498993,758.658936 365.089539,758.658936 358.338470,758.658936 
	C358.338470,741.820496 358.338470,724.749939 358.338470,707.338989 
	C363.838623,707.338989 369.581818,707.338989 375.812408,707.338989 
	C375.907562,708.588196 376.020966,710.076965 376.191711,712.318665 
	C383.087402,704.914307 391.637878,705.609924 399.909821,706.099670 
	C407.696777,706.560669 411.507751,713.562561 411.894745,722.413025 
	C412.345612,732.723877 412.000000,743.069641 412.000000,753.888794 
z"/>
<path fill="#FFFFFF" opacity="1.000000" stroke="none" 
	d="
M817.658203,721.731873 
	C814.673828,722.645996 811.858459,722.958191 809.425598,724.091492 
	C805.237427,726.042725 801.783325,726.002197 797.827454,723.127808 
	C794.530518,720.732239 790.815735,722.645142 788.564087,726.909729 
	C785.023804,733.614868 786.993164,740.393250 793.521667,742.947083 
	C795.006592,743.527954 797.679932,743.490356 798.644714,742.548035 
	C802.199585,739.076294 805.647461,740.453552 809.409180,741.737488 
	C813.497986,743.133118 817.701660,744.191772 821.854736,745.399170 
	C816.034851,757.378296 803.518860,763.000366 788.205139,759.918579 
	C774.346619,757.129578 767.136169,747.694031 766.122375,735.184875 
	C765.036804,721.789612 772.170593,709.883667 785.140747,707.137634 
	C800.463318,703.893494 813.359863,704.853455 822.069397,720.498108 
	C820.660645,720.844666 819.330017,721.172058 817.658203,721.731873 
z"/>
<path fill="#FFFFFF" opacity="1.000000" stroke="none" 
	d="
M660.333374,752.203491 
	C657.820068,757.011353 653.641052,758.641846 649.118530,759.354980 
	C638.062927,761.098145 627.310242,760.658875 618.019287,753.356323 
	C616.996948,752.552734 616.059692,750.317688 616.460754,749.277893 
	C617.604370,746.312866 619.226746,743.439453 621.187805,740.944153 
	C621.720093,740.266907 624.363953,740.593811 625.620483,741.254761 
	C630.960266,744.063416 636.158813,747.112061 644.385864,745.378174 
	C641.910461,743.463928 640.492126,741.838257 638.706238,741.089600 
	C634.143860,739.177002 629.350830,737.818481 624.769775,735.945496 
	C612.509827,730.933350 615.180908,717.182129 622.255493,710.963135 
	C628.153564,705.778381 634.887512,705.243469 642.493591,705.751587 
	C649.782104,706.238525 655.590698,708.740417 660.884094,713.269348 
	C658.810059,716.496765 656.745422,719.540588 654.864990,722.694275 
	C653.587341,724.836975 652.745972,725.752197 650.090759,723.836121 
	C647.459717,721.937439 644.046753,720.985474 640.848328,720.063965 
	C639.094543,719.558655 637.075562,719.973572 635.176147,719.973572 
	C635.041382,720.802429 634.906555,721.631287 634.771790,722.460144 
	C638.874634,723.967102 642.980957,725.464661 647.078979,726.984436 
	C649.474121,727.872742 651.943420,728.618164 654.228699,729.735779 
	C663.468689,734.254639 665.893677,742.836731 660.333374,752.203491 
z"/>
<path fill="#FFFFFF" opacity="1.000000" stroke="none" 
	d="
M671.000000,698.983032 
	C671.000000,695.856079 671.000000,693.215271 671.000000,690.288147 
	C677.606628,690.288147 684.006165,690.288147 690.802490,690.288147 
	C690.802490,695.591736 690.802490,700.997375 690.802490,706.784241 
	C694.249817,706.784241 697.324341,706.784241 700.699402,706.784241 
	C700.699402,711.566895 700.699402,715.972290 700.699402,720.767822 
	C697.767212,720.767822 694.691406,720.767822 691.005920,720.767822 
	C691.005920,726.889771 690.797913,732.656738 691.090576,738.398193 
	C691.245056,741.427917 692.965454,743.267456 696.483643,742.036682 
	C697.983398,741.511963 699.594849,741.306702 701.954834,740.776733 
	C702.980774,745.482300 704.052490,750.098877 704.928284,754.752380 
	C705.052734,755.413757 704.407837,756.700928 703.811157,756.944641 
	C695.313416,760.415588 686.612427,761.866760 677.809998,758.245300 
	C673.123840,756.317261 671.121643,752.227478 671.040405,747.364014 
	C670.896545,738.743225 671.000000,730.118286 671.000000,721.125366 
	C668.647461,721.125366 666.575623,721.125366 664.253052,721.125366 
	C664.253052,716.349426 664.253052,711.939575 664.253052,707.152771 
	C666.319641,707.152771 668.399536,707.152771 671.000000,707.152771 
	C671.000000,704.349670 671.000000,701.909424 671.000000,698.983032 
z"/>
<path fill="#FFFFFF" opacity="1.000000" stroke="none" 
	d="
M434.501587,759.999634 
	C427.057159,758.784790 422.506531,752.358398 422.889954,745.675049 
	C423.353851,737.588562 423.000000,729.455139 423.000000,721.143799 
	C420.632660,721.143799 418.678955,721.143799 416.361847,721.143799 
	C416.361847,716.428406 416.361847,711.904175 416.361847,706.997314 
	C418.465485,706.997314 420.538910,706.997314 422.993958,706.997314 
	C422.993958,701.222900 422.993958,695.807922 422.993958,690.204224 
	C429.783081,690.204224 436.182373,690.204224 442.975037,690.204224 
	C442.975037,695.771118 442.975037,701.183838 442.975037,706.968506 
	C446.431610,706.968506 449.507172,706.968506 452.786987,706.968506 
	C452.786987,711.759155 452.786987,716.164368 452.786987,720.958557 
	C449.582977,720.958557 446.498383,720.958557 443.000000,720.958557 
	C443.000000,726.280884 442.974091,731.228638 443.006714,736.175903 
	C443.044769,741.942932 444.800201,743.344116 450.238556,741.942200 
	C451.147736,741.707886 451.986725,741.201172 453.845123,740.388977 
	C454.954285,745.535400 456.148529,750.253113 456.832947,755.043579 
	C456.950256,755.864441 454.995514,757.695190 453.822906,757.867432 
	C447.560913,758.787048 441.243317,759.328003 434.501587,759.999634 
z"/>
<path fill="#FFFFFF" opacity="1.000000" stroke="none" 
	d="
M571.835327,633.999878 
	C559.395386,634.000000 547.442505,634.000000 535.245972,634.000000 
	C535.245972,627.302795 535.245972,620.902222 535.245972,614.000000 
	C538.880859,614.000000 542.491760,614.097351 546.095642,613.979004 
	C552.847473,613.757263 557.924133,609.042786 557.997559,603.073303 
	C558.070801,597.122437 552.999268,592.282043 546.242065,592.024536 
	C542.627563,591.886719 539.003479,592.000122 535.198303,592.000122 
	C535.198303,586.205200 535.198303,580.804138 535.198303,575.201416 
	C543.122009,575.201416 550.854126,575.201416 558.980408,575.201416 
	C558.980408,580.440063 558.980408,585.519653 558.980408,590.976013 
	C564.434692,590.976013 569.514282,590.976013 574.998413,590.976013 
	C574.998413,604.800659 575.043396,618.236328 574.884033,631.669556 
	C574.874695,632.456238 573.214355,633.223450 571.835327,633.999878 
z"/>
<path fill="#FFFFFF" opacity="1.000000" stroke="none" 
	d="
M520.000000,746.638794 
	C520.000000,726.266357 520.000000,706.354553 520.000000,686.222412 
	C526.740234,686.222412 533.134399,686.222412 540.000000,686.222412 
	C540.000000,700.728210 540.000000,715.137756 540.000000,729.547241 
	C540.000000,731.376099 539.986206,733.205078 540.002441,735.033813 
	C540.073975,743.114319 542.287170,744.757080 550.136414,742.108521 
	C551.091248,746.650085 552.094849,751.142029 552.913330,755.667358 
	C553.017822,756.245178 552.299255,757.405457 551.721558,757.607300 
	C544.059631,760.283447 536.186768,761.296753 528.299316,759.012573 
	C522.580139,757.356384 520.560303,752.613525 520.000000,746.638794 
z"/>
<path fill="#FFFFFF" opacity="1.000000" stroke="none" 
	d="
M555.000000,690.137207 
	C554.607117,687.043457 555.285583,685.770569 558.362305,685.925842 
	C563.672424,686.193848 569.005737,686.000061 575.000000,686.000061 
	C575.000000,687.697632 575.000000,689.282104 575.000000,690.866577 
	C575.000000,705.030212 575.000000,719.193787 575.000000,733.357422 
	C575.000000,734.023926 574.991028,734.690613 575.001404,735.356995 
	C575.123901,743.212036 577.404419,744.822693 585.118652,741.964539 
	C586.083557,746.532654 587.116821,751.026245 587.898499,755.563232 
	C588.012878,756.227173 587.091614,757.542053 586.375000,757.803589 
	C579.144104,760.442261 571.539978,761.032959 564.164001,759.445496 
	C558.026917,758.124573 555.021118,752.850586 555.010254,746.110840 
	C554.980469,727.614868 555.000000,709.118713 555.000000,690.137207 
z"/>
<path fill="#FFFFFF" opacity="1.000000" stroke="none" 
	d="
M346.803467,688.002075 
	C347.857849,689.101868 348.922302,690.197632 348.927094,691.297913 
	C349.024231,713.626221 348.999908,735.955078 348.999908,758.641846 
	C342.199799,758.641846 335.455475,758.641846 328.354309,758.641846 
	C328.354309,735.515869 328.354309,712.110352 328.354309,688.000183 
	C334.148773,688.000183 340.234436,688.000183 346.803467,688.002075 
z"/>
<path fill="#FFFFFF" opacity="1.000000" stroke="none" 
	d="
M548.078369,510.000000 
	C559.097290,508.836090 567.883179,517.922180 568.940186,527.890808 
	C569.790283,535.908325 563.884521,547.233398 552.380981,549.203552 
	C544.803223,550.501221 538.774231,548.294678 534.083984,543.300659 
	C528.065491,536.892334 527.002869,528.846558 530.822083,520.784912 
	C534.092957,513.880676 539.668884,509.923462 548.078369,510.000000 
z"/>
<path fill="#FFFFFF" opacity="1.000000" stroke="none" 
	d="
M610.606018,707.402954 
	C610.943726,724.700317 610.943726,741.652405 610.943726,758.798706 
	C603.866699,758.798706 597.128723,758.798706 590.203857,758.798706 
	C590.203857,741.526733 590.203857,724.456116 590.203857,707.057739 
	C597.023621,707.057739 603.645996,707.057739 610.606018,707.402954 
z"/>
<path fill="#FFFFFF" opacity="1.000000" stroke="none" 
	d="
M674.999878,510.000000 
	C682.141968,510.000000 688.784058,510.000000 695.712280,510.000000 
	C695.712280,512.289307 695.712280,514.359070 695.712280,517.000000 
	C694.060120,517.000000 692.288086,517.000000 690.516052,517.000000 
	C653.699585,517.000000 616.882751,516.925842 580.066895,517.076416 
	C574.246094,517.100220 568.840820,517.265381 566.596008,510.000000 
	C602.457642,510.000000 638.478760,510.000000 674.999878,510.000000 
z"/>
<path fill="#FFFFFF" opacity="1.000000" stroke="none" 
	d="
M594.135864,686.000000 
	C599.920410,686.000000 605.219788,686.000000 610.756836,686.000000 
	C610.756836,691.706665 610.756836,697.111389 610.756836,702.759583 
	C603.953796,702.759583 597.216003,702.759583 590.001465,702.759583 
	C590.001465,697.917969 590.133362,693.133972 589.955505,688.361511 
	C589.834961,685.126404 592.044922,686.184448 594.135864,686.000000 
z"/>
<path fill="#FFFFFF" opacity="1.000000" stroke="none" 
	d="
M520.108704,635.000000 
	C516.987427,635.408936 515.788025,634.652100 515.926331,631.615051 
	C516.183411,625.971863 516.000061,620.308594 516.000061,614.327148 
	C520.536560,614.327148 524.943604,614.327148 529.677612,614.327148 
	C529.677612,620.870728 529.677612,627.613525 529.677612,635.000000 
	C526.777222,635.000000 523.683044,635.000000 520.108704,635.000000 
z"/>
<path fill="#FFFFFF" opacity="1.000000" stroke="none" 
	d="
M556.975220,452.000000 
	C552.839355,452.000000 549.196045,452.000000 545.277588,452.000000 
	C545.277588,449.366272 545.277588,446.959564 545.277588,444.272491 
	C551.951538,444.272491 558.699097,444.272491 565.725220,444.272491 
	C565.725220,446.638580 565.725220,449.043396 565.725220,452.000000 
	C563.025085,452.000000 560.246460,452.000000 556.975220,452.000000 
z"/>
<path fill="#FFFFFF" opacity="1.000000" stroke="none" 
	d="
M636.000183,500.947693 
	C636.000000,499.168823 636.000000,497.866150 636.000000,496.282227 
	C643.015625,496.282227 649.843262,496.282227 656.803955,496.282227 
	C656.803955,498.835876 656.803955,501.226288 656.803955,503.998779 
	C650.540405,503.998779 644.461365,504.096069 638.393127,503.884521 
	C637.567932,503.855774 636.796631,502.282196 636.000183,500.947693 
z"/>
<path fill="#FFFFFF" opacity="1.000000" stroke="none" 
	d="
M562.817932,503.999878 
	C556.739624,504.000000 551.145935,504.000000 545.277222,504.000000 
	C545.277222,501.381195 545.277222,498.987549 545.277222,496.293701 
	C551.983887,496.293701 558.810425,496.293701 566.271606,496.293701 
	C564.418213,498.806519 569.079102,503.011627 562.817932,503.999878 
z"/>
<path fill="#FFFFFF" opacity="1.000000" stroke="none" 
	d="
M657.000000,448.000183 
	C656.914124,450.145844 657.692871,452.150970 654.569458,452.054047 
	C648.501831,451.865692 642.424133,451.998901 636.179932,451.998901 
	C636.179932,449.195374 636.179932,446.804871 636.179932,444.001099 
	C642.423828,444.001099 648.501465,444.134155 654.569092,443.945984 
	C657.692078,443.849152 656.914429,445.854095 657.000000,448.000183 
z"/>
<path fill="#FFFFFF" opacity="1.000000" stroke="none" 
	d="
M525.729614,510.000000 
	C527.961060,510.000000 529.731323,510.000000 531.725342,510.000000 
	C525.416931,521.767151 514.872864,515.118713 506.167480,517.321899 
	C506.167480,514.617432 506.167480,512.662292 506.167480,510.000000 
	C512.448120,510.000000 518.858276,510.000000 525.729614,510.000000 
z"/>
<path fill="#FFFFFF" opacity="1.000000" stroke="none" 
	d="
M643.002441,570.106018 
	C643.617310,569.089966 644.220825,568.087219 644.844421,568.074524 
	C650.754578,567.954651 656.668091,568.003113 662.786987,568.003113 
	C662.786987,570.739990 662.786987,573.130554 662.786987,575.763062 
	C656.341187,575.763062 649.968872,575.763062 643.000305,575.763062 
	C643.000305,574.060486 643.000305,572.319580 643.002441,570.106018 
z"/>
<path fill="#000000" opacity="1.000000" stroke="none" 
	d="
M659.244385,613.998352 
	C657.955627,612.271606 657.142944,610.546326 656.046509,608.218567 
	C667.685913,608.218567 678.056885,608.218567 688.804138,608.218567 
	C688.880066,609.945129 688.956360,611.679871 689.058411,613.999817 
	C679.155090,613.999817 669.437744,613.999817 659.244385,613.998352 
z"/>
<path fill="#000000" opacity="1.000000" stroke="none" 
	d="
M683.029724,622.167114 
	C684.876831,621.396912 686.697937,621.089294 688.783203,620.737122 
	C688.783203,623.041443 688.783203,624.764893 688.783203,626.745361 
	C687.041504,626.745361 685.319824,626.745361 683.223816,626.745361 
	C683.154297,625.445740 683.078979,624.037720 683.029724,622.167114 
z"/>
<path fill="#000000" opacity="1.000000" stroke="none" 
	d="
M675.999634,623.997742 
	C676.080383,629.261047 672.347351,625.869324 670.344849,627.575195 
	C670.344849,625.107178 670.344849,623.275024 670.344849,620.886780 
	C672.264404,622.014893 675.699829,618.579895 675.999634,623.997742 
z"/>
<path fill="#000000" opacity="1.000000" stroke="none" 
	d="
M659.084412,621.002075 
	C663.047729,621.381409 663.047729,621.381409 662.877014,626.679199 
	C661.057983,626.679199 659.222168,626.679199 656.239075,626.679199 
	C657.145813,624.526550 657.887695,622.765137 659.084412,621.002075 
z"/>
<path fill="#000000" opacity="1.000000" stroke="none" 
	d="
M491.728760,722.246277 
	C492.798828,723.792236 493.577667,725.053650 494.683472,726.844604 
	C488.999298,726.844604 484.236450,726.844604 479.473083,726.840271 
	C480.643768,719.899963 486.090637,717.681091 491.728760,722.246277 
z"/>
<path fill="#000000" opacity="1.000000" stroke="none" 
	d="
M742.906738,737.276855 
	C740.788269,741.445374 738.015625,744.429688 733.392029,743.668152 
	C729.694031,743.058899 725.783081,736.682251 726.045776,732.680664 
	C726.340149,728.196716 730.384766,722.752808 733.966248,722.019897 
	C737.486389,721.299500 742.604248,725.685425 742.963013,729.913757 
	C743.158264,732.214539 742.991760,734.546082 742.906738,737.276855 
z"/>
</svg>