<!DOCTYPE svg PUBLIC "-//W3C//DTD SVG 1.1//EN" "http://www.w3.org/Graphics/SVG/1.1/DTD/svg11.dtd">
<!-- Uploaded to: SVG Repo, www.svgrepo.com, Transformed by: SVG Repo Mixer Tools -->
<svg width="800px" height="800px" viewBox="0 0 64 64" data-name="Layer 1" id="Layer_1" xmlns="http://www.w3.org/2000/svg" fill="#000000">
<g id="SVGRepo_bgCarrier" stroke-width="0"/>
<g id="SVGRepo_tracerCarrier" stroke-linecap="round" stroke-linejoin="round"/>
<g id="SVGRepo_iconCarrier">
<defs>
<style>.cls-1{fill:#ededed;}</style>
</defs>
<title/>
<path class="cls-1" d="M28.5,60.5a6,6,0,0,1-5.73-7.78l2.94-9.45a2,2,0,0,1,3.82,1.19l-2.94,9.45a2,2,0,0,0,3.82,1.18l7-22.5a2,2,0,0,0,0-1.18l-7-22.5a2,2,0,0,0-3.82,1.18l6.63,21.32a2,2,0,0,1,0,1.18l-.88,2.85a2,2,0,0,1-3.82-1.19l.7-2.25L22.77,11.28A6,6,0,0,1,34.23,7.72l7,22.5a6,6,0,0,1,0,3.56l-7,22.5A6,6,0,0,1,28.5,60.5Z"/>
</g>
</svg>